<svg xmlns="http://www.w3.org/2000/svg" width="512" height="512" viewBox="0 0 512 512">
  <defs>
    <linearGradient id="bg" x1="0%" y1="0%" x2="100%" y2="100%">
      <stop offset="0%" style="stop-color:#1B4332"/>
      <stop offset="50%" style="stop-color:#2D6A4F"/>
      <stop offset="100%" style="stop-color:#40916C"/>
    </linearGradient>
    <linearGradient id="leaf" x1="0%" y1="0%" x2="100%" y2="100%">
      <stop offset="0%" style="stop-color:#95D5B2"/>
      <stop offset="100%" style="stop-color:#D8F3DC"/>
    </linearGradient>
  </defs>
  <rect width="512" height="512" rx="108" fill="url(#bg)"/>
  <circle cx="256" cy="256" r="180" fill="none" stroke="rgba(255,255,255,0.08)" stroke-width="2"/>
  <circle cx="256" cy="256" r="140" fill="none" stroke="rgba(255,255,255,0.05)" stroke-width="1"/>
  <path d="M256 120 C256 120 180 200 180 280 C180 340 214 380 256 380 C298 380 332 340 332 280 C332 200 256 120 256 120 Z" fill="url(#leaf)" opacity="0.9"/>
  <path d="M256 160 L256 340 M256 240 C220 240 200 260 200 290 M256 240 C292 240 312 260 312 290" stroke="#1B4332" stroke-width="8" stroke-linecap="round" fill="none" opacity="0.6"/>
  <text x="256" y="460" text-anchor="middle" fill="rgba(255,255,255,0.9)" font-family="Georgia,serif" font-size="52" font-weight="600" letter-spacing="4">WL</text>
</svg>
